<mxfile host="app.diagrams.net" agent="Mozilla/5.0 (Windows NT 10.0; Win64; x64) AppleWebKit/537.36 (KHTML, like Gecko) Chrome/128.0.0.0 Safari/537.36" version="24.7.7">
  <diagram name="Page-1" id="MNlM8gOKwM-hDdeUlh_W">
    <mxGraphModel dx="2106" dy="725" grid="1" gridSize="10" guides="1" tooltips="1" connect="1" arrows="1" fold="1" page="1" pageScale="1" pageWidth="850" pageHeight="1100" math="0" shadow="0">
      <root>
        <mxCell id="0" />
        <mxCell id="1" parent="0" />
        <mxCell id="CmMq9HIF_aWhzkodC0nT-4" value="C&lt;sub&gt;1&lt;/sub&gt;" style="ellipse;whiteSpace=wrap;html=1;aspect=fixed;fillColor=#f8cecc;strokeColor=#b85450;" vertex="1" parent="1">
          <mxGeometry x="97.5" y="160.5" width="30" height="30" as="geometry" />
        </mxCell>
        <mxCell id="CmMq9HIF_aWhzkodC0nT-5" value="D&lt;sub&gt;1&lt;/sub&gt;" style="ellipse;whiteSpace=wrap;html=1;aspect=fixed;fillColor=#dae8fc;strokeColor=#6c8ebf;" vertex="1" parent="1">
          <mxGeometry x="137.5" y="160.5" width="30" height="30" as="geometry" />
        </mxCell>
        <mxCell id="CmMq9HIF_aWhzkodC0nT-6" value="" style="rounded=1;whiteSpace=wrap;html=1;fillColor=none;" vertex="1" parent="1">
          <mxGeometry x="87.5" y="150.5" width="90" height="50" as="geometry" />
        </mxCell>
        <mxCell id="CmMq9HIF_aWhzkodC0nT-8" value="C&lt;span style=&quot;font-size: 10px;&quot;&gt;&lt;sub&gt;2&lt;/sub&gt;&lt;/span&gt;" style="ellipse;whiteSpace=wrap;html=1;aspect=fixed;fillColor=#f8cecc;strokeColor=#b85450;" vertex="1" parent="1">
          <mxGeometry x="207.5" y="160.5" width="30" height="30" as="geometry" />
        </mxCell>
        <mxCell id="CmMq9HIF_aWhzkodC0nT-9" value="D&lt;span style=&quot;font-size: 10px;&quot;&gt;&lt;sub&gt;2&lt;/sub&gt;&lt;/span&gt;" style="ellipse;whiteSpace=wrap;html=1;aspect=fixed;fillColor=#dae8fc;strokeColor=#6c8ebf;" vertex="1" parent="1">
          <mxGeometry x="247.5" y="160.5" width="30" height="30" as="geometry" />
        </mxCell>
        <mxCell id="CmMq9HIF_aWhzkodC0nT-10" value="" style="rounded=1;whiteSpace=wrap;html=1;fillColor=none;" vertex="1" parent="1">
          <mxGeometry x="197.5" y="150.5" width="90" height="50" as="geometry" />
        </mxCell>
        <mxCell id="CmMq9HIF_aWhzkodC0nT-11" value="C&lt;span style=&quot;font-size: 10px;&quot;&gt;&lt;sub&gt;n&lt;/sub&gt;&lt;/span&gt;" style="ellipse;whiteSpace=wrap;html=1;aspect=fixed;fillColor=#f8cecc;strokeColor=#b85450;" vertex="1" parent="1">
          <mxGeometry x="377.5" y="160.5" width="30" height="30" as="geometry" />
        </mxCell>
        <mxCell id="CmMq9HIF_aWhzkodC0nT-12" value="D&lt;span style=&quot;font-size: 10px;&quot;&gt;&lt;sub&gt;n&lt;/sub&gt;&lt;/span&gt;" style="ellipse;whiteSpace=wrap;html=1;aspect=fixed;fillColor=#dae8fc;strokeColor=#6c8ebf;" vertex="1" parent="1">
          <mxGeometry x="417.5" y="160.5" width="30" height="30" as="geometry" />
        </mxCell>
        <mxCell id="CmMq9HIF_aWhzkodC0nT-13" value="" style="rounded=1;whiteSpace=wrap;html=1;fillColor=none;" vertex="1" parent="1">
          <mxGeometry x="367.5" y="150.5" width="90" height="50" as="geometry" />
        </mxCell>
        <mxCell id="CmMq9HIF_aWhzkodC0nT-14" value="&lt;font size=&quot;1&quot; style=&quot;&quot;&gt;&lt;b style=&quot;font-size: 20px;&quot;&gt;. . .&lt;/b&gt;&lt;/font&gt;" style="rounded=1;whiteSpace=wrap;html=1;fillColor=none;opacity=0;" vertex="1" parent="1">
          <mxGeometry x="297.5" y="150.5" width="60" height="45" as="geometry" />
        </mxCell>
        <mxCell id="CmMq9HIF_aWhzkodC0nT-70" value="" style="edgeStyle=orthogonalEdgeStyle;rounded=0;orthogonalLoop=1;jettySize=auto;html=1;entryX=0.41;entryY=-0.021;entryDx=0;entryDy=0;entryPerimeter=0;strokeWidth=2;" edge="1" parent="1" source="CmMq9HIF_aWhzkodC0nT-17" target="CmMq9HIF_aWhzkodC0nT-45">
          <mxGeometry relative="1" as="geometry" />
        </mxCell>
        <mxCell id="CmMq9HIF_aWhzkodC0nT-207" value="Add C&#39;-D&#39; to retrieved C-D pairs" style="edgeLabel;html=1;align=center;verticalAlign=middle;resizable=0;points=[];" vertex="1" connectable="0" parent="CmMq9HIF_aWhzkodC0nT-70">
          <mxGeometry x="0.1617" relative="1" as="geometry">
            <mxPoint x="81" as="offset" />
          </mxGeometry>
        </mxCell>
        <mxCell id="CmMq9HIF_aWhzkodC0nT-17" value="" style="strokeWidth=1;shadow=0;dashed=0;align=center;html=1;shape=mxgraph.mockup.containers.marginRect2;rectMarginLeft=67;strokeColor=#666666;gradientColor=none;whiteSpace=wrap;fillColor=none;" vertex="1" parent="1">
          <mxGeometry x="10" y="140.5" width="457.5" height="70" as="geometry" />
        </mxCell>
        <mxCell id="CmMq9HIF_aWhzkodC0nT-18" value="Retrieved&lt;div&gt;Context-Decision&lt;/div&gt;&lt;div&gt;Pairs&lt;/div&gt;" style="strokeColor=inherit;fillColor=inherit;gradientColor=inherit;strokeWidth=1;shadow=0;dashed=0;align=center;html=1;shape=mxgraph.mockup.containers.rrect;rSize=0;fontSize=17;fontColor=#666666;" vertex="1" parent="CmMq9HIF_aWhzkodC0nT-17">
          <mxGeometry width="140" height="70" relative="1" as="geometry">
            <mxPoint x="-80" as="offset" />
          </mxGeometry>
        </mxCell>
        <mxCell id="CmMq9HIF_aWhzkodC0nT-21" value="" style="strokeWidth=1;shadow=0;dashed=0;align=center;html=1;shape=mxgraph.mockup.containers.leftButton;rSize=5;strokeColor=#008cff;fillColor=#008cff;resizeHeight=1;movable=0;deletable=0;" vertex="1" parent="CmMq9HIF_aWhzkodC0nT-17">
          <mxGeometry width="7" height="70" relative="1" as="geometry">
            <mxPoint x="60" as="offset" />
          </mxGeometry>
        </mxCell>
        <mxCell id="CmMq9HIF_aWhzkodC0nT-35" value="C&lt;sub&gt;1&lt;/sub&gt;" style="ellipse;whiteSpace=wrap;html=1;aspect=fixed;fillColor=#f8cecc;strokeColor=#b85450;" vertex="1" parent="1">
          <mxGeometry x="97.5" y="295.5" width="30" height="30" as="geometry" />
        </mxCell>
        <mxCell id="CmMq9HIF_aWhzkodC0nT-36" value="D&lt;sub&gt;1&lt;/sub&gt;" style="ellipse;whiteSpace=wrap;html=1;aspect=fixed;fillColor=#dae8fc;strokeColor=#6c8ebf;" vertex="1" parent="1">
          <mxGeometry x="137.5" y="295.5" width="30" height="30" as="geometry" />
        </mxCell>
        <mxCell id="CmMq9HIF_aWhzkodC0nT-37" value="" style="rounded=1;whiteSpace=wrap;html=1;fillColor=none;" vertex="1" parent="1">
          <mxGeometry x="87.5" y="285.5" width="90" height="50" as="geometry" />
        </mxCell>
        <mxCell id="CmMq9HIF_aWhzkodC0nT-38" value="C&lt;span style=&quot;font-size: 10px;&quot;&gt;&lt;sub&gt;2&lt;/sub&gt;&lt;/span&gt;" style="ellipse;whiteSpace=wrap;html=1;aspect=fixed;fillColor=#f8cecc;strokeColor=#b85450;" vertex="1" parent="1">
          <mxGeometry x="207.5" y="295.5" width="30" height="30" as="geometry" />
        </mxCell>
        <mxCell id="CmMq9HIF_aWhzkodC0nT-39" value="D&lt;span style=&quot;font-size: 10px;&quot;&gt;&lt;sub&gt;2&lt;/sub&gt;&lt;/span&gt;" style="ellipse;whiteSpace=wrap;html=1;aspect=fixed;fillColor=#dae8fc;strokeColor=#6c8ebf;" vertex="1" parent="1">
          <mxGeometry x="247.5" y="295.5" width="30" height="30" as="geometry" />
        </mxCell>
        <mxCell id="CmMq9HIF_aWhzkodC0nT-40" value="" style="rounded=1;whiteSpace=wrap;html=1;fillColor=none;" vertex="1" parent="1">
          <mxGeometry x="197.5" y="285.5" width="90" height="50" as="geometry" />
        </mxCell>
        <mxCell id="CmMq9HIF_aWhzkodC0nT-41" value="C&lt;span style=&quot;font-size: 10px;&quot;&gt;&lt;sub&gt;n&lt;/sub&gt;&lt;/span&gt;" style="ellipse;whiteSpace=wrap;html=1;aspect=fixed;fillColor=#f8cecc;strokeColor=#b85450;" vertex="1" parent="1">
          <mxGeometry x="377.5" y="295.5" width="30" height="30" as="geometry" />
        </mxCell>
        <mxCell id="CmMq9HIF_aWhzkodC0nT-42" value="D&lt;span style=&quot;font-size: 10px;&quot;&gt;&lt;sub&gt;n&lt;/sub&gt;&lt;/span&gt;" style="ellipse;whiteSpace=wrap;html=1;aspect=fixed;fillColor=#dae8fc;strokeColor=#6c8ebf;" vertex="1" parent="1">
          <mxGeometry x="417.5" y="295.5" width="30" height="30" as="geometry" />
        </mxCell>
        <mxCell id="CmMq9HIF_aWhzkodC0nT-43" value="" style="rounded=1;whiteSpace=wrap;html=1;fillColor=none;" vertex="1" parent="1">
          <mxGeometry x="367.5" y="285.5" width="90" height="50" as="geometry" />
        </mxCell>
        <mxCell id="CmMq9HIF_aWhzkodC0nT-44" value="&lt;font size=&quot;1&quot; style=&quot;&quot;&gt;&lt;b style=&quot;font-size: 20px;&quot;&gt;. . .&lt;/b&gt;&lt;/font&gt;" style="rounded=1;whiteSpace=wrap;html=1;fillColor=none;opacity=0;" vertex="1" parent="1">
          <mxGeometry x="297.5" y="285.5" width="60" height="45" as="geometry" />
        </mxCell>
        <mxCell id="CmMq9HIF_aWhzkodC0nT-72" value="" style="edgeStyle=orthogonalEdgeStyle;rounded=0;orthogonalLoop=1;jettySize=auto;html=1;exitX=0.41;exitY=1.021;exitDx=0;exitDy=0;exitPerimeter=0;strokeWidth=2;" edge="1" parent="1" source="CmMq9HIF_aWhzkodC0nT-45" target="CmMq9HIF_aWhzkodC0nT-67">
          <mxGeometry relative="1" as="geometry" />
        </mxCell>
        <mxCell id="CmMq9HIF_aWhzkodC0nT-45" value="" style="strokeWidth=1;shadow=0;dashed=0;align=center;html=1;shape=mxgraph.mockup.containers.marginRect2;rectMarginLeft=67;strokeColor=#666666;gradientColor=none;whiteSpace=wrap;fillColor=none;" vertex="1" parent="1">
          <mxGeometry x="10" y="273" width="560" height="70" as="geometry" />
        </mxCell>
        <mxCell id="CmMq9HIF_aWhzkodC0nT-46" value="Few-shot&lt;div&gt;Sample&lt;/div&gt;" style="strokeColor=inherit;fillColor=inherit;gradientColor=inherit;strokeWidth=1;shadow=0;dashed=0;align=center;html=1;shape=mxgraph.mockup.containers.rrect;rSize=0;fontSize=17;fontColor=#666666;" vertex="1" parent="CmMq9HIF_aWhzkodC0nT-45">
          <mxGeometry width="140" height="70" relative="1" as="geometry">
            <mxPoint x="-80" as="offset" />
          </mxGeometry>
        </mxCell>
        <mxCell id="CmMq9HIF_aWhzkodC0nT-47" value="" style="strokeWidth=1;shadow=0;dashed=0;align=center;html=1;shape=mxgraph.mockup.containers.leftButton;rSize=5;strokeColor=#008cff;fillColor=#008cff;resizeHeight=1;movable=0;deletable=0;" vertex="1" parent="CmMq9HIF_aWhzkodC0nT-45">
          <mxGeometry width="7" height="70" relative="1" as="geometry">
            <mxPoint x="60" as="offset" />
          </mxGeometry>
        </mxCell>
        <mxCell id="CmMq9HIF_aWhzkodC0nT-48" value="C&#39;" style="ellipse;whiteSpace=wrap;html=1;aspect=fixed;fillColor=#f8cecc;strokeColor=#b85450;" vertex="1" parent="1">
          <mxGeometry x="487.5" y="295.5" width="30" height="30" as="geometry" />
        </mxCell>
        <mxCell id="CmMq9HIF_aWhzkodC0nT-49" value="D&#39;" style="ellipse;whiteSpace=wrap;html=1;aspect=fixed;fillColor=#dae8fc;strokeColor=#6c8ebf;" vertex="1" parent="1">
          <mxGeometry x="527.5" y="295.5" width="30" height="30" as="geometry" />
        </mxCell>
        <mxCell id="CmMq9HIF_aWhzkodC0nT-68" value="" style="edgeStyle=orthogonalEdgeStyle;rounded=0;orthogonalLoop=1;jettySize=auto;html=1;curved=0;strokeWidth=2;" edge="1" parent="1" source="CmMq9HIF_aWhzkodC0nT-51" target="CmMq9HIF_aWhzkodC0nT-61">
          <mxGeometry relative="1" as="geometry" />
        </mxCell>
        <mxCell id="CmMq9HIF_aWhzkodC0nT-51" value="C&#39;" style="ellipse;whiteSpace=wrap;html=1;aspect=fixed;fillColor=#f8cecc;strokeColor=#b85450;" vertex="1" parent="1">
          <mxGeometry x="117.5" y="35" width="30" height="30" as="geometry" />
        </mxCell>
        <mxCell id="CmMq9HIF_aWhzkodC0nT-52" value="D&#39;" style="ellipse;whiteSpace=wrap;html=1;aspect=fixed;fillColor=#dae8fc;strokeColor=#6c8ebf;" vertex="1" parent="1">
          <mxGeometry x="117.5" y="79.5" width="30" height="30" as="geometry" />
        </mxCell>
        <mxCell id="CmMq9HIF_aWhzkodC0nT-57" value="Context" style="text;strokeColor=none;align=center;fillColor=none;html=1;verticalAlign=middle;whiteSpace=wrap;rounded=0;" vertex="1" parent="1">
          <mxGeometry x="67.5" y="42.25" width="50" height="15.5" as="geometry" />
        </mxCell>
        <mxCell id="CmMq9HIF_aWhzkodC0nT-58" value="Decision" style="text;strokeColor=none;align=center;fillColor=none;html=1;verticalAlign=middle;whiteSpace=wrap;rounded=0;" vertex="1" parent="1">
          <mxGeometry x="62.5" y="84.5" width="60" height="20" as="geometry" />
        </mxCell>
        <mxCell id="CmMq9HIF_aWhzkodC0nT-69" value="" style="edgeStyle=orthogonalEdgeStyle;rounded=0;orthogonalLoop=1;jettySize=auto;html=1;labelPosition=center;verticalLabelPosition=top;align=center;verticalAlign=bottom;strokeWidth=2;" edge="1" parent="1" source="CmMq9HIF_aWhzkodC0nT-61" target="CmMq9HIF_aWhzkodC0nT-17">
          <mxGeometry relative="1" as="geometry" />
        </mxCell>
        <mxCell id="CmMq9HIF_aWhzkodC0nT-205" value="Retrieves C-D&amp;nbsp;pair where C&lt;sub&gt;&amp;nbsp;&lt;/sub&gt;is similar to C&#39;" style="edgeLabel;html=1;align=center;verticalAlign=middle;resizable=0;points=[];" vertex="1" connectable="0" parent="CmMq9HIF_aWhzkodC0nT-69">
          <mxGeometry x="-0.0436" relative="1" as="geometry">
            <mxPoint x="111" as="offset" />
          </mxGeometry>
        </mxCell>
        <mxCell id="CmMq9HIF_aWhzkodC0nT-61" value="Vector DB&lt;br&gt;with C-D pairs" style="shadow=0;dashed=0;html=1;labelPosition=right;verticalLabelPosition=middle;verticalAlign=middle;align=left;outlineConnect=0;shape=mxgraph.veeam.3d.datastore;" vertex="1" parent="1">
          <mxGeometry x="216.75" y="20" width="44" height="60" as="geometry" />
        </mxCell>
        <mxCell id="CmMq9HIF_aWhzkodC0nT-71" value="" style="edgeStyle=orthogonalEdgeStyle;rounded=0;orthogonalLoop=1;jettySize=auto;html=1;strokeWidth=2;" edge="1" parent="1" source="CmMq9HIF_aWhzkodC0nT-65" target="CmMq9HIF_aWhzkodC0nT-67">
          <mxGeometry relative="1" as="geometry" />
        </mxCell>
        <mxCell id="CmMq9HIF_aWhzkodC0nT-65" value="Pretrained&lt;div&gt;LLM&lt;/div&gt;" style="sketch=0;outlineConnect=0;fontColor=#232F3E;gradientColor=none;fillColor=#7AA116;strokeColor=none;dashed=0;verticalLabelPosition=bottom;verticalAlign=top;align=center;html=1;fontSize=12;fontStyle=0;aspect=fixed;pointerEvents=1;shape=mxgraph.aws4.iot_sitewise_asset_model;" vertex="1" parent="1">
          <mxGeometry x="62.5" y="396.5" width="60" height="60" as="geometry" />
        </mxCell>
        <mxCell id="CmMq9HIF_aWhzkodC0nT-202" style="edgeStyle=orthogonalEdgeStyle;rounded=0;orthogonalLoop=1;jettySize=auto;html=1;horizontal=1;verticalAlign=middle;dashed=1;curved=1;shape=flexArrow;" edge="1" parent="1" source="CmMq9HIF_aWhzkodC0nT-66" target="CmMq9HIF_aWhzkodC0nT-184">
          <mxGeometry relative="1" as="geometry">
            <Array as="points">
              <mxPoint x="610" y="426.5000000000002" />
              <mxPoint x="610" y="990" />
            </Array>
          </mxGeometry>
        </mxCell>
        <mxCell id="CmMq9HIF_aWhzkodC0nT-212" value="Use the&lt;div&gt;Finetuned&lt;/div&gt;&lt;div&gt;model&lt;/div&gt;" style="edgeLabel;html=1;align=right;verticalAlign=middle;resizable=0;points=[];" vertex="1" connectable="0" parent="CmMq9HIF_aWhzkodC0nT-202">
          <mxGeometry x="-0.034" y="1" relative="1" as="geometry">
            <mxPoint x="-11" y="-12" as="offset" />
          </mxGeometry>
        </mxCell>
        <mxCell id="CmMq9HIF_aWhzkodC0nT-66" value="Finetuned&lt;div&gt;Model&lt;/div&gt;" style="sketch=0;outlineConnect=0;fontColor=#232F3E;gradientColor=none;fillColor=#01A88D;strokeColor=none;dashed=0;verticalLabelPosition=bottom;verticalAlign=top;align=center;html=1;fontSize=12;fontStyle=0;aspect=fixed;pointerEvents=1;shape=mxgraph.aws4.sagemaker_model;" vertex="1" parent="1">
          <mxGeometry x="357.5" y="396.5" width="60" height="60" as="geometry" />
        </mxCell>
        <mxCell id="CmMq9HIF_aWhzkodC0nT-73" value="" style="edgeStyle=orthogonalEdgeStyle;rounded=0;orthogonalLoop=1;jettySize=auto;html=1;strokeWidth=2;" edge="1" parent="1" source="CmMq9HIF_aWhzkodC0nT-67" target="CmMq9HIF_aWhzkodC0nT-66">
          <mxGeometry relative="1" as="geometry" />
        </mxCell>
        <mxCell id="CmMq9HIF_aWhzkodC0nT-67" value="Finetuning" style="image;html=1;image=img/lib/clip_art/computers/Software_128x128.png" vertex="1" parent="1">
          <mxGeometry x="211.25" y="390.5" width="55" height="72" as="geometry" />
        </mxCell>
        <mxCell id="CmMq9HIF_aWhzkodC0nT-147" value="C&lt;sub&gt;1&lt;/sub&gt;" style="ellipse;whiteSpace=wrap;html=1;aspect=fixed;fillColor=#f8cecc;strokeColor=#b85450;" vertex="1" parent="1">
          <mxGeometry x="97.5" y="720.5" width="30" height="30" as="geometry" />
        </mxCell>
        <mxCell id="CmMq9HIF_aWhzkodC0nT-148" value="D&lt;sub&gt;1&lt;/sub&gt;" style="ellipse;whiteSpace=wrap;html=1;aspect=fixed;fillColor=#dae8fc;strokeColor=#6c8ebf;" vertex="1" parent="1">
          <mxGeometry x="137.5" y="720.5" width="30" height="30" as="geometry" />
        </mxCell>
        <mxCell id="CmMq9HIF_aWhzkodC0nT-149" value="" style="rounded=1;whiteSpace=wrap;html=1;fillColor=none;" vertex="1" parent="1">
          <mxGeometry x="87.5" y="710.5" width="90" height="50" as="geometry" />
        </mxCell>
        <mxCell id="CmMq9HIF_aWhzkodC0nT-150" value="C&lt;span style=&quot;font-size: 10px;&quot;&gt;&lt;sub&gt;2&lt;/sub&gt;&lt;/span&gt;" style="ellipse;whiteSpace=wrap;html=1;aspect=fixed;fillColor=#f8cecc;strokeColor=#b85450;" vertex="1" parent="1">
          <mxGeometry x="207.5" y="720.5" width="30" height="30" as="geometry" />
        </mxCell>
        <mxCell id="CmMq9HIF_aWhzkodC0nT-151" value="D&lt;span style=&quot;font-size: 10px;&quot;&gt;&lt;sub&gt;2&lt;/sub&gt;&lt;/span&gt;" style="ellipse;whiteSpace=wrap;html=1;aspect=fixed;fillColor=#dae8fc;strokeColor=#6c8ebf;" vertex="1" parent="1">
          <mxGeometry x="247.5" y="720.5" width="30" height="30" as="geometry" />
        </mxCell>
        <mxCell id="CmMq9HIF_aWhzkodC0nT-152" value="" style="rounded=1;whiteSpace=wrap;html=1;fillColor=none;" vertex="1" parent="1">
          <mxGeometry x="197.5" y="710.5" width="90" height="50" as="geometry" />
        </mxCell>
        <mxCell id="CmMq9HIF_aWhzkodC0nT-153" value="C&lt;span style=&quot;font-size: 10px;&quot;&gt;&lt;sub&gt;n&lt;/sub&gt;&lt;/span&gt;" style="ellipse;whiteSpace=wrap;html=1;aspect=fixed;fillColor=#f8cecc;strokeColor=#b85450;" vertex="1" parent="1">
          <mxGeometry x="377.5" y="720.5" width="30" height="30" as="geometry" />
        </mxCell>
        <mxCell id="CmMq9HIF_aWhzkodC0nT-154" value="D&lt;span style=&quot;font-size: 10px;&quot;&gt;&lt;sub&gt;n&lt;/sub&gt;&lt;/span&gt;" style="ellipse;whiteSpace=wrap;html=1;aspect=fixed;fillColor=#dae8fc;strokeColor=#6c8ebf;" vertex="1" parent="1">
          <mxGeometry x="417.5" y="720.5" width="30" height="30" as="geometry" />
        </mxCell>
        <mxCell id="CmMq9HIF_aWhzkodC0nT-155" value="" style="rounded=1;whiteSpace=wrap;html=1;fillColor=none;" vertex="1" parent="1">
          <mxGeometry x="367.5" y="710.5" width="90" height="50" as="geometry" />
        </mxCell>
        <mxCell id="CmMq9HIF_aWhzkodC0nT-156" value="&lt;font size=&quot;1&quot; style=&quot;&quot;&gt;&lt;b style=&quot;font-size: 20px;&quot;&gt;. . .&lt;/b&gt;&lt;/font&gt;" style="rounded=1;whiteSpace=wrap;html=1;fillColor=none;opacity=0;" vertex="1" parent="1">
          <mxGeometry x="297.5" y="710.5" width="60" height="45" as="geometry" />
        </mxCell>
        <mxCell id="CmMq9HIF_aWhzkodC0nT-157" value="" style="edgeStyle=orthogonalEdgeStyle;rounded=0;orthogonalLoop=1;jettySize=auto;html=1;entryX=0.41;entryY=-0.021;entryDx=0;entryDy=0;entryPerimeter=0;strokeWidth=2;" edge="1" parent="1" source="CmMq9HIF_aWhzkodC0nT-158" target="CmMq9HIF_aWhzkodC0nT-171">
          <mxGeometry relative="1" as="geometry" />
        </mxCell>
        <mxCell id="CmMq9HIF_aWhzkodC0nT-158" value="" style="strokeWidth=1;shadow=0;dashed=0;align=center;html=1;shape=mxgraph.mockup.containers.marginRect2;rectMarginLeft=67;strokeColor=#666666;gradientColor=none;whiteSpace=wrap;fillColor=none;" vertex="1" parent="1">
          <mxGeometry x="10" y="700.5" width="457.5" height="70" as="geometry" />
        </mxCell>
        <mxCell id="CmMq9HIF_aWhzkodC0nT-159" value="Retrieved&lt;div&gt;Context-Decision&lt;/div&gt;&lt;div&gt;Pairs&lt;/div&gt;" style="strokeColor=inherit;fillColor=inherit;gradientColor=inherit;strokeWidth=1;shadow=0;dashed=0;align=center;html=1;shape=mxgraph.mockup.containers.rrect;rSize=0;fontSize=17;fontColor=#666666;" vertex="1" parent="CmMq9HIF_aWhzkodC0nT-158">
          <mxGeometry width="140" height="70" relative="1" as="geometry">
            <mxPoint x="-80" as="offset" />
          </mxGeometry>
        </mxCell>
        <mxCell id="CmMq9HIF_aWhzkodC0nT-160" value="" style="strokeWidth=1;shadow=0;dashed=0;align=center;html=1;shape=mxgraph.mockup.containers.leftButton;rSize=5;strokeColor=#008cff;fillColor=#008cff;resizeHeight=1;movable=0;deletable=0;" vertex="1" parent="CmMq9HIF_aWhzkodC0nT-158">
          <mxGeometry width="7" height="70" relative="1" as="geometry">
            <mxPoint x="60" as="offset" />
          </mxGeometry>
        </mxCell>
        <mxCell id="CmMq9HIF_aWhzkodC0nT-161" value="C&lt;sub&gt;1&lt;/sub&gt;" style="ellipse;whiteSpace=wrap;html=1;aspect=fixed;fillColor=#f8cecc;strokeColor=#b85450;" vertex="1" parent="1">
          <mxGeometry x="97.5" y="855.5" width="30" height="30" as="geometry" />
        </mxCell>
        <mxCell id="CmMq9HIF_aWhzkodC0nT-162" value="D&lt;sub&gt;1&lt;/sub&gt;" style="ellipse;whiteSpace=wrap;html=1;aspect=fixed;fillColor=#dae8fc;strokeColor=#6c8ebf;" vertex="1" parent="1">
          <mxGeometry x="137.5" y="855.5" width="30" height="30" as="geometry" />
        </mxCell>
        <mxCell id="CmMq9HIF_aWhzkodC0nT-163" value="" style="rounded=1;whiteSpace=wrap;html=1;fillColor=none;" vertex="1" parent="1">
          <mxGeometry x="87.5" y="845.5" width="90" height="50" as="geometry" />
        </mxCell>
        <mxCell id="CmMq9HIF_aWhzkodC0nT-164" value="C&lt;span style=&quot;font-size: 10px;&quot;&gt;&lt;sub&gt;2&lt;/sub&gt;&lt;/span&gt;" style="ellipse;whiteSpace=wrap;html=1;aspect=fixed;fillColor=#f8cecc;strokeColor=#b85450;" vertex="1" parent="1">
          <mxGeometry x="207.5" y="855.5" width="30" height="30" as="geometry" />
        </mxCell>
        <mxCell id="CmMq9HIF_aWhzkodC0nT-165" value="D&lt;span style=&quot;font-size: 10px;&quot;&gt;&lt;sub&gt;2&lt;/sub&gt;&lt;/span&gt;" style="ellipse;whiteSpace=wrap;html=1;aspect=fixed;fillColor=#dae8fc;strokeColor=#6c8ebf;" vertex="1" parent="1">
          <mxGeometry x="247.5" y="855.5" width="30" height="30" as="geometry" />
        </mxCell>
        <mxCell id="CmMq9HIF_aWhzkodC0nT-166" value="" style="rounded=1;whiteSpace=wrap;html=1;fillColor=none;" vertex="1" parent="1">
          <mxGeometry x="197.5" y="845.5" width="90" height="50" as="geometry" />
        </mxCell>
        <mxCell id="CmMq9HIF_aWhzkodC0nT-167" value="C&lt;span style=&quot;font-size: 10px;&quot;&gt;&lt;sub&gt;n&lt;/sub&gt;&lt;/span&gt;" style="ellipse;whiteSpace=wrap;html=1;aspect=fixed;fillColor=#f8cecc;strokeColor=#b85450;" vertex="1" parent="1">
          <mxGeometry x="377.5" y="855.5" width="30" height="30" as="geometry" />
        </mxCell>
        <mxCell id="CmMq9HIF_aWhzkodC0nT-168" value="D&lt;span style=&quot;font-size: 10px;&quot;&gt;&lt;sub&gt;n&lt;/sub&gt;&lt;/span&gt;" style="ellipse;whiteSpace=wrap;html=1;aspect=fixed;fillColor=#dae8fc;strokeColor=#6c8ebf;" vertex="1" parent="1">
          <mxGeometry x="417.5" y="855.5" width="30" height="30" as="geometry" />
        </mxCell>
        <mxCell id="CmMq9HIF_aWhzkodC0nT-169" value="" style="rounded=1;whiteSpace=wrap;html=1;fillColor=none;" vertex="1" parent="1">
          <mxGeometry x="367.5" y="845.5" width="90" height="50" as="geometry" />
        </mxCell>
        <mxCell id="CmMq9HIF_aWhzkodC0nT-170" value="&lt;font size=&quot;1&quot; style=&quot;&quot;&gt;&lt;b style=&quot;font-size: 20px;&quot;&gt;. . .&lt;/b&gt;&lt;/font&gt;" style="rounded=1;whiteSpace=wrap;html=1;fillColor=none;opacity=0;" vertex="1" parent="1">
          <mxGeometry x="297.5" y="845.5" width="60" height="45" as="geometry" />
        </mxCell>
        <mxCell id="CmMq9HIF_aWhzkodC0nT-174" value="C&#39;" style="ellipse;whiteSpace=wrap;html=1;aspect=fixed;fillColor=#f8cecc;strokeColor=#b85450;" vertex="1" parent="1">
          <mxGeometry x="487.5" y="855.5" width="30" height="30" as="geometry" />
        </mxCell>
        <mxCell id="CmMq9HIF_aWhzkodC0nT-177" value="" style="edgeStyle=orthogonalEdgeStyle;rounded=0;orthogonalLoop=1;jettySize=auto;html=1;strokeWidth=2;" edge="1" parent="1" source="CmMq9HIF_aWhzkodC0nT-178" target="CmMq9HIF_aWhzkodC0nT-183">
          <mxGeometry relative="1" as="geometry" />
        </mxCell>
        <mxCell id="CmMq9HIF_aWhzkodC0nT-178" value="C&#39;" style="ellipse;whiteSpace=wrap;html=1;aspect=fixed;fillColor=#f8cecc;strokeColor=#b85450;" vertex="1" parent="1">
          <mxGeometry x="117.5" y="595" width="30" height="30" as="geometry" />
        </mxCell>
        <mxCell id="CmMq9HIF_aWhzkodC0nT-180" value="Context" style="text;strokeColor=none;align=center;fillColor=none;html=1;verticalAlign=middle;whiteSpace=wrap;rounded=0;" vertex="1" parent="1">
          <mxGeometry x="107.5" y="580" width="50" height="15.5" as="geometry" />
        </mxCell>
        <mxCell id="CmMq9HIF_aWhzkodC0nT-182" value="" style="edgeStyle=orthogonalEdgeStyle;rounded=0;orthogonalLoop=1;jettySize=auto;html=1;strokeWidth=2;" edge="1" parent="1" source="CmMq9HIF_aWhzkodC0nT-183" target="CmMq9HIF_aWhzkodC0nT-158">
          <mxGeometry relative="1" as="geometry" />
        </mxCell>
        <mxCell id="CmMq9HIF_aWhzkodC0nT-183" value="Vector DB&lt;br&gt;with C-D pairs" style="shadow=0;dashed=0;html=1;labelPosition=right;verticalLabelPosition=middle;verticalAlign=middle;align=left;outlineConnect=0;shape=mxgraph.veeam.3d.datastore;" vertex="1" parent="1">
          <mxGeometry x="216.75" y="580" width="44" height="60" as="geometry" />
        </mxCell>
        <mxCell id="CmMq9HIF_aWhzkodC0nT-191" style="edgeStyle=orthogonalEdgeStyle;rounded=0;orthogonalLoop=1;jettySize=auto;html=1;entryX=1;entryY=0.5;entryDx=0;entryDy=0;strokeWidth=2;" edge="1" parent="1" source="CmMq9HIF_aWhzkodC0nT-184" target="CmMq9HIF_aWhzkodC0nT-186">
          <mxGeometry relative="1" as="geometry" />
        </mxCell>
        <mxCell id="CmMq9HIF_aWhzkodC0nT-211" value="Generate D&#39;" style="edgeLabel;html=1;align=center;verticalAlign=middle;resizable=0;points=[];" vertex="1" connectable="0" parent="CmMq9HIF_aWhzkodC0nT-191">
          <mxGeometry x="-0.0857" relative="1" as="geometry">
            <mxPoint x="-1" y="-10" as="offset" />
          </mxGeometry>
        </mxCell>
        <mxCell id="CmMq9HIF_aWhzkodC0nT-186" value="D&#39;" style="ellipse;whiteSpace=wrap;html=1;aspect=fixed;fillColor=#dae8fc;strokeColor=#6c8ebf;" vertex="1" parent="1">
          <mxGeometry x="117.5" y="975" width="30" height="30" as="geometry" />
        </mxCell>
        <mxCell id="CmMq9HIF_aWhzkodC0nT-187" value="Generated&lt;div&gt;Decision&lt;/div&gt;" style="text;strokeColor=none;align=center;fillColor=none;html=1;verticalAlign=middle;whiteSpace=wrap;rounded=0;" vertex="1" parent="1">
          <mxGeometry x="50" y="980" width="60" height="20" as="geometry" />
        </mxCell>
        <mxCell id="CmMq9HIF_aWhzkodC0nT-196" style="edgeStyle=orthogonalEdgeStyle;rounded=0;orthogonalLoop=1;jettySize=auto;html=1;entryX=0;entryY=0.5;entryDx=0;entryDy=0;strokeWidth=2;" edge="1" parent="1" source="CmMq9HIF_aWhzkodC0nT-193" target="CmMq9HIF_aWhzkodC0nT-178">
          <mxGeometry relative="1" as="geometry" />
        </mxCell>
        <mxCell id="CmMq9HIF_aWhzkodC0nT-193" value="Software&lt;div&gt;Architect&lt;/div&gt;" style="image;html=1;image=img/lib/clip_art/people/Suit_Woman_Blue_128x128.png" vertex="1" parent="1">
          <mxGeometry x="-30" y="580" width="60" height="60" as="geometry" />
        </mxCell>
        <mxCell id="CmMq9HIF_aWhzkodC0nT-203" value="&lt;font style=&quot;font-size: 20px;&quot;&gt;Training&lt;/font&gt;" style="swimlane;horizontal=0;whiteSpace=wrap;html=1;dashed=1;dashPattern=12 12;startSize=30;" vertex="1" parent="1">
          <mxGeometry x="-110" y="10" width="740" height="490" as="geometry" />
        </mxCell>
        <mxCell id="CmMq9HIF_aWhzkodC0nT-50" value="" style="rounded=1;whiteSpace=wrap;html=1;fillColor=none;" vertex="1" parent="CmMq9HIF_aWhzkodC0nT-203">
          <mxGeometry x="581.25" y="275.5" width="90" height="50" as="geometry" />
        </mxCell>
        <mxCell id="CmMq9HIF_aWhzkodC0nT-204" value="&lt;font style=&quot;font-size: 20px;&quot;&gt;Inference&lt;/font&gt;" style="swimlane;horizontal=0;whiteSpace=wrap;html=1;dashed=1;dashPattern=12 12;startSize=30;" vertex="1" parent="1">
          <mxGeometry x="-110" y="540" width="740" height="520" as="geometry" />
        </mxCell>
        <mxCell id="CmMq9HIF_aWhzkodC0nT-209" value="Retrieves C-D&amp;nbsp;pair where C&lt;sub&gt;&amp;nbsp;&lt;/sub&gt;is similar to C&#39;" style="edgeLabel;html=1;align=center;verticalAlign=middle;resizable=0;points=[];" vertex="1" connectable="0" parent="CmMq9HIF_aWhzkodC0nT-204">
          <mxGeometry x="460" y="130" as="geometry" />
        </mxCell>
        <mxCell id="CmMq9HIF_aWhzkodC0nT-171" value="" style="strokeWidth=1;shadow=0;dashed=0;align=center;html=1;shape=mxgraph.mockup.containers.marginRect2;rectMarginLeft=67;strokeColor=#666666;gradientColor=none;whiteSpace=wrap;fillColor=none;" vertex="1" parent="CmMq9HIF_aWhzkodC0nT-204">
          <mxGeometry x="120" y="295.5" width="560" height="70" as="geometry" />
        </mxCell>
        <mxCell id="CmMq9HIF_aWhzkodC0nT-172" value="Few-shot&lt;div&gt;Sample&lt;/div&gt;" style="strokeColor=inherit;fillColor=inherit;gradientColor=inherit;strokeWidth=1;shadow=0;dashed=0;align=center;html=1;shape=mxgraph.mockup.containers.rrect;rSize=0;fontSize=17;fontColor=#666666;" vertex="1" parent="CmMq9HIF_aWhzkodC0nT-171">
          <mxGeometry width="140" height="70" relative="1" as="geometry">
            <mxPoint x="-80" as="offset" />
          </mxGeometry>
        </mxCell>
        <mxCell id="CmMq9HIF_aWhzkodC0nT-173" value="" style="strokeWidth=1;shadow=0;dashed=0;align=center;html=1;shape=mxgraph.mockup.containers.leftButton;rSize=5;strokeColor=#008cff;fillColor=#008cff;resizeHeight=1;movable=0;deletable=0;" vertex="1" parent="CmMq9HIF_aWhzkodC0nT-171">
          <mxGeometry width="7" height="70" relative="1" as="geometry">
            <mxPoint x="60" as="offset" />
          </mxGeometry>
        </mxCell>
        <mxCell id="CmMq9HIF_aWhzkodC0nT-176" value="" style="rounded=1;whiteSpace=wrap;html=1;fillColor=none;" vertex="1" parent="CmMq9HIF_aWhzkodC0nT-171">
          <mxGeometry x="461.25" y="10" width="90" height="50" as="geometry" />
        </mxCell>
        <mxCell id="CmMq9HIF_aWhzkodC0nT-184" value="Finetuned&lt;div&gt;Model&lt;/div&gt;" style="sketch=0;outlineConnect=0;fontColor=#232F3E;gradientColor=none;fillColor=#01A88D;strokeColor=none;dashed=0;verticalLabelPosition=bottom;verticalAlign=top;align=center;html=1;fontSize=12;fontStyle=0;aspect=fixed;pointerEvents=1;shape=mxgraph.aws4.sagemaker_model;" vertex="1" parent="CmMq9HIF_aWhzkodC0nT-204">
          <mxGeometry x="467.5" y="420" width="60" height="60" as="geometry" />
        </mxCell>
        <mxCell id="CmMq9HIF_aWhzkodC0nT-188" style="edgeStyle=orthogonalEdgeStyle;rounded=0;orthogonalLoop=1;jettySize=auto;html=1;exitX=0.674;exitY=0.988;exitDx=0;exitDy=0;exitPerimeter=0;strokeWidth=2;" edge="1" parent="CmMq9HIF_aWhzkodC0nT-204" source="CmMq9HIF_aWhzkodC0nT-171" target="CmMq9HIF_aWhzkodC0nT-184">
          <mxGeometry relative="1" as="geometry">
            <mxPoint x="490" y="366" as="sourcePoint" />
          </mxGeometry>
        </mxCell>
        <mxCell id="CmMq9HIF_aWhzkodC0nT-210" value="Add C&#39; to retrieved C-D pairs" style="text;whiteSpace=wrap;html=1;" vertex="1" parent="CmMq9HIF_aWhzkodC0nT-204">
          <mxGeometry x="350" y="250" width="200" height="40" as="geometry" />
        </mxCell>
      </root>
    </mxGraphModel>
  </diagram>
</mxfile>
